<svg width="24" height="28" viewBox="0 0 24 28" fill="none" xmlns="http://www.w3.org/2000/svg">
<path d="M12.0698 14C13.86 14 15.5769 13.2888 16.8428 12.023C18.1087 10.7571 18.8198 9.04021 18.8198 7.25C18.8198 5.45979 18.1087 3.7429 16.8428 2.47703C15.5769 1.21116 13.86 0.5 12.0698 0.5C10.2796 0.5 8.56272 1.21116 7.29685 2.47703C6.03098 3.7429 5.31982 5.45979 5.31982 7.25C5.31982 9.04021 6.03098 10.7571 7.29685 12.023C8.56272 13.2888 10.2796 14 12.0698 14ZM9.65986 16.5312C4.46553 16.5312 0.257324 20.7395 0.257324 25.9338C0.257324 26.7986 0.958691 27.5 1.82354 27.5H22.3161C23.181 27.5 23.8823 26.7986 23.8823 25.9338C23.8823 20.7395 19.6741 16.5312 14.4798 16.5312H9.65986Z" fill="black"/>
</svg>
