<svg width="31" height="28" viewBox="0 0 31 28" fill="none" xmlns="http://www.w3.org/2000/svg">
<path d="M0.882324 1.76562C0.882324 1.06426 1.44658 0.5 2.14795 0.5H4.54736C5.70752 0.5 6.73584 1.175 7.21572 2.1875H28.8895C30.2765 2.1875 31.289 3.50586 30.9251 4.84531L28.763 12.8768C28.3147 14.5326 26.8118 15.6875 25.0979 15.6875H9.88408L10.1688 17.1904C10.2849 17.7863 10.8069 18.2188 11.4134 18.2188H26.6167C27.3181 18.2188 27.8823 18.783 27.8823 19.4844C27.8823 20.1857 27.3181 20.75 26.6167 20.75H11.4134C9.58877 20.75 8.02256 19.4527 7.68506 17.665L4.96396 3.37402C4.92705 3.17363 4.75303 3.03125 4.54736 3.03125H2.14795C1.44658 3.03125 0.882324 2.46699 0.882324 1.76562ZM7.63232 24.9688C7.63232 24.6363 7.6978 24.3072 7.825 24.0001C7.95221 23.693 8.13866 23.4139 8.37371 23.1789C8.60876 22.9438 8.8878 22.7574 9.19491 22.6302C9.50201 22.503 9.83116 22.4375 10.1636 22.4375C10.496 22.4375 10.8251 22.503 11.1322 22.6302C11.4393 22.7574 11.7184 22.9438 11.9534 23.1789C12.1885 23.4139 12.3749 23.693 12.5021 24.0001C12.6293 24.3072 12.6948 24.6363 12.6948 24.9688C12.6948 25.3012 12.6293 25.6303 12.5021 25.9374C12.3749 26.2445 12.1885 26.5236 11.9534 26.7586C11.7184 26.9937 11.4393 27.1801 11.1322 27.3073C10.8251 27.4345 10.496 27.5 10.1636 27.5C9.83116 27.5 9.50201 27.4345 9.19491 27.3073C8.8878 27.1801 8.60876 26.9937 8.37371 26.7586C8.13866 26.5236 7.95221 26.2445 7.825 25.9374C7.6978 25.6303 7.63232 25.3012 7.63232 24.9688ZM25.3511 22.4375C26.0224 22.4375 26.6662 22.7042 27.1409 23.1789C27.6156 23.6536 27.8823 24.2974 27.8823 24.9688C27.8823 25.6401 27.6156 26.2839 27.1409 26.7586C26.6662 27.2333 26.0224 27.5 25.3511 27.5C24.6797 27.5 24.0359 27.2333 23.5612 26.7586C23.0865 26.2839 22.8198 25.6401 22.8198 24.9688C22.8198 24.2974 23.0865 23.6536 23.5612 23.1789C24.0359 22.7042 24.6797 22.4375 25.3511 22.4375Z" fill="black"/>
</svg>
